<svg width="67" height="67" viewBox="0 0 67 67" fill="none" xmlns="http://www.w3.org/2000/svg">
<path d="M20.9375 58.6554H13.6094V58.625V29.323H13.6198C13.6198 26.4336 15.9544 24.0886 18.8437 24.0886H25.125C26.2452 24.0886 27.313 24.3399 28.2552 24.79V58.625V58.6554H20.9375Z" fill="#CCBEB9"/>
<path d="M16.75 15.7136C21.3772 15.7136 25.125 19.4614 25.125 24.0886H18.8438C15.9544 24.0886 13.6198 26.4336 13.6198 29.323H13.6094H9.43234V10.4688C9.43234 13.3686 11.7669 15.7031 14.6667 15.7031V15.7136H16.75Z" fill="#444444"/>
<path d="M28.2656 5.22391V5.23438H9.43234H9.42188V2.09375L10.4688 1.04688H24.0781L28.2656 5.22391Z" fill="#444444"/>
<path d="M64.9062 1.04688C65.482 1.04688 65.9531 1.51797 65.9531 2.09375V4.1875C65.9531 4.76328 65.482 5.23438 64.9062 5.23438H29.323C28.7472 5.23438 28.274 5.23438 28.2709 5.23438C28.2677 5.23438 28.2656 5.23228 28.2656 5.22914C28.2656 5.226 28.2656 4.75281 28.2656 4.17703V2.09375C28.2656 1.51797 28.7367 1.04688 29.3125 1.04688H64.9062Z" fill="#444444"/>
<path d="M45.4553 22.4775L42.0006 24.8539L38.5459 27.2303L32.4531 31.4178C32.4531 28.4865 30.7362 25.9635 28.2551 24.791C27.313 24.3409 26.2452 24.0896 25.125 24.0896C25.125 19.4625 21.3772 15.7146 16.75 15.7146H14.6667V15.7031C11.7669 15.7031 9.43234 13.3686 9.43234 10.4688V5.23438H28.2656H28.2761H64.9062V14.6667C64.9062 17.5561 62.5612 19.9011 59.6719 19.9011H49.2031L45.4553 22.4775Z" fill="#AD7961"/>
<path d="M12.5667 30.3708H10.4771C9.89822 30.3708 9.43027 29.9018 9.43027 29.324C9.43027 28.7461 9.89822 28.2771 10.4771 28.2771H12.5667C13.1456 28.2771 13.6136 28.7461 13.6136 29.324C13.6136 29.9018 13.1456 30.3708 12.5667 30.3708Z" fill="#444444"/>
<path d="M38.5512 28.2731C38.2245 28.2731 37.9042 28.1203 37.7001 27.8366L35.9779 25.434C35.6409 24.964 35.7487 24.3097 36.2187 23.9726C36.6877 23.6355 37.342 23.7454 37.6791 24.2133L39.4012 26.6159C39.7383 27.086 39.6305 27.7403 39.1604 28.0774C38.9751 28.2093 38.7616 28.2731 38.5512 28.2731Z" fill="#E6E9ED"/>
<path d="M42.0027 25.9008C41.6761 25.9008 41.3557 25.7479 41.1516 25.4642L39.3813 22.9946C39.0442 22.5246 39.1521 21.8703 39.6211 21.5332C40.0922 21.1951 40.7454 21.305 41.0825 21.7729L42.8528 24.2425C43.1899 24.7125 43.082 25.3668 42.613 25.7039C42.4267 25.8379 42.2131 25.9008 42.0027 25.9008Z" fill="#E6E9ED"/>
<path d="M45.4542 23.5277C45.1276 23.5277 44.8073 23.3748 44.6031 23.0911L42.7837 20.5514C42.4466 20.0824 42.5544 19.4291 43.0234 19.091C43.4945 18.7518 44.1477 18.8617 44.4848 19.3318L46.3043 21.8694C46.6414 22.3395 46.5336 22.9938 46.0646 23.3309C45.8782 23.4638 45.6647 23.5277 45.4542 23.5277Z" fill="#E6E9ED"/>
<path d="M10.4688 3.14062C11.0469 3.14062 11.5156 2.67192 11.5156 2.09375C11.5156 1.51558 11.0469 1.04688 10.4688 1.04688C9.89058 1.04688 9.42188 1.51558 9.42188 2.09375C9.42188 2.67192 9.89058 3.14062 10.4688 3.14062Z" fill="#444444"/>
<path d="M40.8281 64.9062C40.8281 65.4819 40.357 65.953 39.7812 65.953H2.09375C1.51797 65.953 1.04688 65.4819 1.04688 64.9062V59.7021C1.04688 59.1264 1.51797 58.6553 2.09375 58.6553H39.7812C40.357 58.6553 40.8281 59.1264 40.8281 59.7021V64.9062Z" fill="#CCBEB9"/>
<path d="M1.04688 62.8125H40.8281V65.9531H1.04688V62.8125Z" fill="#444444"/>
</svg>
