<svg width="67" height="67" viewBox="0 0 67 67" fill="none" xmlns="http://www.w3.org/2000/svg">
<g clip-path="url(#clip0)">
<path d="M66.4232 18.5526L18.5528 66.423C17.7865 67.1867 16.5468 67.1867 15.7804 66.423L13.8975 64.5401L13.0773 63.7199L12.2571 62.8997L8.99954 59.6421L8.17937 58.8219L3.24678 53.8894L2.42661 53.0807V53.0692L0.578335 51.2209C-0.185373 50.4546 -0.185373 49.2149 0.578335 48.4485L19.3614 29.6654L31.3175 17.7094L48.4487 0.578152C49.215 -0.185556 50.4547 -0.185556 51.2211 0.578152L53.104 2.46108L53.9242 3.28126L59.6423 8.99936L62.8999 12.2685H62.9114L63.7201 13.0771L64.5402 13.8973L66.4232 15.7802C67.1869 16.5466 67.1869 17.7863 66.4232 18.5526Z" fill="#A56A43"/>
<path d="M64.5395 13.8969L62.2292 16.2303C58.8418 19.6708 53.9728 21.2145 49.2219 20.3543C48.508 20.2344 47.7856 20.1726 47.0618 20.1694C43.781 20.1586 40.6322 21.4605 38.3171 23.7851L37.9937 24.1086C37.5381 24.5553 36.8088 24.5553 36.3533 24.1086C35.9028 23.6546 35.9028 22.9222 36.3533 22.4682L36.6768 22.1448C40.0701 18.7564 44.9064 17.2421 49.6262 18.0901C53.6299 18.8053 57.7292 17.5051 60.5888 14.6131L62.8992 12.2681H62.9107L63.7193 13.0767L64.5395 13.8969Z" fill="#805333"/>
<path d="M28.6368 46.4957L28.5444 46.5881C25.1525 50.0207 20.2858 51.5593 15.5371 50.7005C14.8232 50.5807 14.1008 50.5189 13.3769 50.5157C10.0962 50.5048 6.94738 51.8068 4.63228 54.1314L4.06625 54.6974H4.0547L3.24608 53.8888L2.4259 53.0802V53.0686L2.99194 52.5026C6.38096 49.1065 11.2194 47.5872 15.9414 48.4364C19.9453 49.1536 24.0455 47.8531 26.904 44.9593L26.9964 44.8554C27.4494 44.4024 28.1838 44.4024 28.6368 44.8554C29.0897 45.3083 29.0897 46.0427 28.6368 46.4957Z" fill="#805333"/>
<path d="M54.7321 4.08924L50.6544 8.17856C50.4347 8.39225 50.1407 8.51235 49.8342 8.51356C49.5311 8.51228 49.2407 8.39197 49.0256 8.17856C48.804 7.96555 48.6788 7.67149 48.6788 7.36416C48.6788 7.05683 48.804 6.76277 49.0256 6.54976L53.1033 2.46045L53.9235 3.28062L54.7321 4.08924Z" fill="#603E26"/>
<path d="M43.3017 15.0506C42.8345 15.0505 42.4134 14.769 42.2347 14.3374C42.0559 13.9058 42.1547 13.4091 42.485 13.0787L45.7518 9.81187C46.0436 9.51988 46.469 9.40574 46.8677 9.51243C47.2665 9.61913 47.578 9.93046 47.685 10.3291C47.792 10.7278 47.6782 11.1533 47.3864 11.4453L44.1184 14.7121C43.9023 14.9295 43.6082 15.0514 43.3017 15.0506Z" fill="#805333"/>
<path d="M43.0302 30.0346C42.5631 30.0345 42.142 29.753 41.9632 29.3214C41.7844 28.8898 41.8832 28.3931 42.2135 28.0627L44.9397 25.3365C45.393 24.8987 46.1134 24.905 46.559 25.3505C47.0046 25.7961 47.0109 26.5166 46.5731 26.9699L43.8469 29.6961C43.6303 29.9127 43.3365 30.0345 43.0302 30.0346Z" fill="#603E26"/>
<path d="M12.7069 46.2069C12.2398 46.2068 11.8186 45.9254 11.6399 45.4938C11.4611 45.0622 11.5599 44.5654 11.8902 44.2351L19.445 36.6802C19.8983 36.2424 20.6188 36.2487 21.0644 36.6943C21.51 37.1399 21.5162 37.8604 21.0784 38.3136L13.5236 45.8685C13.307 46.0851 13.0132 46.2069 12.7069 46.2069Z" fill="#603E26"/>
<path d="M22.7916 55.0902L13.9199 64.5165L13.8968 64.5396L13.0766 63.7194L12.2564 62.8992L21.105 53.4961C21.5452 53.0304 22.2796 53.0097 22.7454 53.4499C23.2111 53.8901 23.2318 54.6245 22.7916 55.0902Z" fill="#603E26"/>
<path d="M59.6416 8.99874L55.5523 13.0765C55.3393 13.298 55.0452 13.4232 54.7379 13.4232C54.4306 13.4232 54.1365 13.298 53.9235 13.0765C53.4756 12.6259 53.4756 11.8983 53.9235 11.4477L58.0013 7.3584L59.6416 8.99874Z" fill="#805333"/>
<path d="M33.6271 49.6607L28.683 48.1244C28.2209 47.9764 27.8988 47.5577 27.8743 47.0732L27.8166 45.6754L27.5855 40.662C27.5624 40.1732 27.2338 39.7521 26.7654 39.6107L20.643 37.7047C20.5045 37.6586 20.3755 37.5882 20.2618 37.4968C20.0038 37.2909 19.8479 36.9832 19.8343 36.6535L19.5455 30.2538C19.5333 30.0453 19.4698 29.8429 19.3607 29.6647C19.2109 29.4422 18.9915 29.2756 18.7369 29.1911L12.6145 27.2966C12.1461 27.1553 11.8175 26.7341 11.7943 26.2454L11.5171 19.8342C11.4939 19.3455 11.1654 18.9243 10.6969 18.783L4.57452 16.8885C4.11246 16.7405 3.79039 16.3218 3.76589 15.8373L3.46555 9.11419C3.45461 8.79744 3.57112 8.48953 3.789 8.25936L11.39 0.357986C11.8411 -0.10808 12.5834 -0.123546 13.0535 0.323331L31.3168 17.7087L32.5181 18.8638L37.1735 23.2882L43.0302 28.8792L44.2547 30.0344L47.2466 32.8761L33.6271 49.6607Z" fill="#BDC3C7"/>
<path d="M13.5271 55.1134L8.99881 59.6416L8.17863 58.8215L7.35846 58.0013L11.8867 53.473C12.3397 53.0201 13.0741 53.0201 13.5271 53.473C13.9801 53.926 13.9801 54.6604 13.5271 55.1134Z" fill="#805333"/>
<path d="M14.0608 8.95005C13.7644 8.94982 13.4795 8.83567 13.2649 8.63122L11.5587 7.00705C11.1123 6.56422 11.102 5.84562 11.5357 5.39026C11.9694 4.93489 12.6876 4.91005 13.1517 5.33437L14.8579 6.95161C15.2007 7.2773 15.3104 7.77907 15.1348 8.21813C14.9592 8.65719 14.5337 8.94487 14.0608 8.94428V8.95005Z" fill="white"/>
<path d="M27.7045 21.9414C27.4081 21.9411 27.1232 21.827 26.9086 21.6225L16.6761 11.8787C16.2392 11.4344 16.2335 10.7237 16.663 10.2724C17.0925 9.82106 17.8025 9.79167 18.2679 10.206L28.5016 19.9498C28.8436 20.2757 28.9527 20.7769 28.7772 21.2154C28.6017 21.654 28.1769 21.9415 27.7045 21.9414Z" fill="white"/>
<path d="M65.0362 46.5071L49.4298 32.4256C48.9439 31.9369 48.1547 31.9317 47.6624 32.414L33.7888 47.7894C33.5788 48.0305 33.4821 48.3501 33.5231 48.6673L33.9736 52.9068C34.0158 53.2433 34.1753 53.5542 34.4241 53.7847L47.6855 65.7407C49.8457 67.6814 53.7848 66.8266 55.5291 64.8975L65.7871 53.5306C67.5117 51.3816 67.1762 48.243 65.0362 46.5071ZM50.3771 61.8247L43.3767 55.5175L54.4202 43.2726L61.4205 49.5799L50.3771 61.8247Z" fill="#E57E25"/>
</g>
<defs>
<clipPath id="clip0">
<rect width="67" height="67" fill="white"/>
</clipPath>
</defs>
</svg>
