<svg width="67" height="67" viewBox="0 0 67 67" fill="none" xmlns="http://www.w3.org/2000/svg">
<path d="M46.187 59.8469C45.1029 59.8469 44.2241 58.9681 44.2241 57.884V53.304H42.8391C41.755 53.304 40.8762 52.4251 40.8762 51.3411C40.8762 50.257 41.755 49.3782 42.8391 49.3782H46.187C47.271 49.3782 48.1498 50.257 48.1498 51.3411V57.884C48.1498 58.9681 47.271 59.8469 46.187 59.8469Z" fill="#CCBEB9"/>
<path d="M33.3311 59.8469C32.247 59.8469 31.3682 58.9681 31.3682 57.884V51.3411C31.3682 50.257 32.247 49.3782 33.3311 49.3782C34.4151 49.3782 35.2939 50.257 35.2939 51.3411V57.884C35.2939 58.9681 34.4151 59.8469 33.3311 59.8469Z" fill="#CCBEB9"/>
<path d="M33.3311 49.3782C34.4151 49.3782 35.2939 50.257 35.2939 51.3411V57.884C35.2939 58.9681 34.4151 59.8469 33.3311 59.8469V49.3782Z" fill="#CCBEB9"/>
<path d="M20.4752 59.8469C19.3911 59.8469 18.5123 58.9681 18.5123 57.884V51.3411C18.5123 50.257 19.3911 49.3782 20.4752 49.3782H23.8229C24.907 49.3782 25.7858 50.257 25.7858 51.3411C25.7858 52.4251 24.907 53.304 23.8229 53.304H22.438V57.884C22.438 58.9681 21.5592 59.8469 20.4752 59.8469Z" fill="#CCBEB9"/>
<path d="M49.5348 55.9211H17.1273C16.0432 55.9211 15.1644 56.8 15.1644 57.884V64.427C15.1644 65.511 16.0432 66.3899 17.1273 66.3899H49.5348C50.6189 66.3899 51.4977 65.511 51.4977 64.427V57.884C51.4977 56.8 50.6189 55.9211 49.5348 55.9211Z" fill="#444444"/>
<path d="M49.5349 55.9211H33.3311V66.3899H49.5349C50.6189 66.3899 51.4977 65.511 51.4977 64.427V57.884C51.4977 56.8 50.6189 55.9211 49.5349 55.9211Z" fill="#444444"/>
<path d="M52.5174 31.9673H14.1447C13.0607 31.9673 12.1818 32.8461 12.1818 33.9302V38.2128C12.1818 42.5457 15.7068 46.0708 20.0397 46.0708H46.6223C50.9552 46.0708 54.4802 42.5457 54.4802 38.2128V33.9302C54.4803 32.8461 53.6014 31.9673 52.5174 31.9673Z" fill="#E06661"/>
<path d="M52.5174 31.9673H33.3311V46.0707H46.6224C50.9553 46.0707 54.4803 42.5456 54.4803 38.2127V33.93C54.4803 32.8461 53.6014 31.9673 52.5174 31.9673Z" fill="#E06661"/>
<path d="M44.2014 27.9765C43.1174 27.9765 42.2385 27.0976 42.2385 26.0136C42.2385 22.3934 45.1838 19.448 48.804 19.448C49.888 19.448 50.7669 20.3268 50.7669 21.4109C50.7669 22.4949 49.888 23.3738 48.804 23.3738C47.3485 23.3738 46.1643 24.5581 46.1643 26.0136C46.1644 27.0978 45.2856 27.9765 44.2014 27.9765Z" fill="#FF8855"/>
<path d="M51.9677 3.28912C50.4951 1.81669 48.6338 0.882881 46.7261 0.660027C44.6771 0.421078 42.7378 1.04737 41.4059 2.37952C40.0737 3.71154 39.4472 5.65061 39.6865 7.69974C39.9094 9.60728 40.8431 11.4689 42.3155 12.9412C42.6988 13.3246 43.2011 13.5162 43.7034 13.5162C44.2056 13.5162 44.7081 13.3245 45.0913 12.9412L47.1413 10.8911L48.192 11.9418C48.5753 12.3251 49.0776 12.5168 49.5799 12.5168C50.0821 12.5168 50.5846 12.3251 50.9678 11.9418C51.7344 11.1754 51.7344 9.93246 50.9678 9.16589L49.9171 8.11522L51.9673 6.06504C52.7341 5.2986 52.7341 4.0557 51.9677 3.28912Z" fill="#F0915A"/>
<path d="M36.4086 5.50269C37.4204 5.50269 38.2406 4.68246 38.2406 3.67065C38.2406 2.65885 37.4204 1.83862 36.4086 1.83862C35.3968 1.83862 34.5765 2.65885 34.5765 3.67065C34.5765 4.68246 35.3968 5.50269 36.4086 5.50269Z" fill="#00CC76"/>
<path d="M33.3311 27.5034C34.3429 27.5034 35.1631 26.6832 35.1631 25.6714C35.1631 24.6596 34.3429 23.8394 33.3311 23.8394C32.3193 23.8394 31.499 24.6596 31.499 25.6714C31.499 26.6832 32.3193 27.5034 33.3311 27.5034Z" fill="#00CC76"/>
<path d="M35.1631 25.6714C35.1631 24.6596 34.3429 23.8394 33.3311 23.8394V27.5034C34.3429 27.5034 35.1631 26.6832 35.1631 25.6714Z" fill="#00CC76"/>
<path d="M25.0636 12.041C26.0754 12.041 26.8956 11.2208 26.8956 10.209C26.8956 9.19718 26.0754 8.37695 25.0636 8.37695C24.0518 8.37695 23.2316 9.19718 23.2316 10.209C23.2316 11.2208 24.0518 12.041 25.0636 12.041Z" fill="#A5E887"/>
<path d="M33.1011 19.8347C36.0118 19.8347 38.3715 17.475 38.3715 14.5643C38.3715 11.6536 36.0118 9.29395 33.1011 9.29395C30.1904 9.29395 27.8307 11.6536 27.8307 14.5643C27.8307 17.475 30.1904 19.8347 33.1011 19.8347Z" fill="#E06661"/>
<path d="M38.3715 14.5642C38.3715 11.7351 36.1308 9.42047 33.3311 9.29956V19.8288C36.1308 19.7078 38.3715 17.3932 38.3715 14.5642Z" fill="#E06661"/>
<path d="M25.2562 17.1869C23.9241 15.8549 21.9847 15.2284 19.9359 15.4674C18.0283 15.6903 16.1669 16.624 14.6944 18.0965C14.3263 18.4646 14.1194 18.9639 14.1194 19.4844C14.1194 20.005 14.3263 20.5043 14.6944 20.8723L16.7446 22.9225L15.6939 23.9732C14.9275 24.7396 14.9275 25.9825 15.6939 26.7491C16.0772 27.1324 16.5796 27.3241 17.0818 27.3241C17.5841 27.3241 18.0866 27.1324 18.4699 26.7491L19.5204 25.6985L21.5704 27.7486C21.9537 28.132 22.456 28.3236 22.9583 28.3236C23.4606 28.3236 23.9631 28.1319 24.3462 27.7486C25.8187 26.2762 26.7523 24.4147 26.9752 22.5071C27.2149 20.458 26.5882 18.5189 25.2562 17.1869Z" fill="#FAB991"/>
<path d="M16.5494 9.68047C15.4653 9.68047 14.5865 8.80162 14.5865 7.71758C14.5865 6.63354 15.4653 5.75469 16.5494 5.75469C18.0049 5.75469 19.1891 4.57054 19.1891 3.11499C19.1891 2.03095 20.0679 1.1521 21.152 1.1521C22.236 1.1521 23.1149 2.03095 23.1149 3.11499C23.1149 6.73522 20.1696 9.68047 16.5494 9.68047Z" fill="#FFB74B"/>
</svg>
