<svg width="67" height="67" viewBox="0 0 67 67" fill="none" xmlns="http://www.w3.org/2000/svg">
<path d="M3.14062 21.9844H63.8594V28.2656H3.14062V21.9844Z" fill="#007AF6"/>
<path d="M41.875 28.2656H49.2031V32.4531H41.875V28.2656Z" fill="#D32B39"/>
<path d="M50.1755 16.75H48.1562C46.768 16.75 45.4366 17.3015 44.455 18.2831C43.4734 19.2647 42.9219 20.5961 42.9219 21.9844H51.2969V29.3125L55.4844 30.3594V22.164C55.4844 21.4433 55.3424 20.7296 55.0666 20.0637C54.7908 19.3978 54.3865 18.7928 53.8769 18.2831C53.3908 17.7971 52.8138 17.4115 52.1787 17.1484C51.5436 16.8854 50.8629 16.75 50.1755 16.75Z" fill="#961B20"/>
<path d="M42.9219 32.4531V60.6584C42.9219 61.5074 43.2592 62.3215 43.8595 62.9218C44.4597 63.5221 45.2739 63.8593 46.1228 63.8594C46.9505 63.8594 47.746 63.5388 48.3424 62.9649C48.9388 62.3911 49.2897 61.6085 49.3216 60.7814L50.25 38.7344L56.5312 36.6406V30.3594L49.2031 28.2656V32.4531H42.9219Z" fill="#E82F3E"/>
<path d="M38.7344 20.9375C38.7344 19.7812 37.797 18.8438 36.6406 18.8438C35.4843 18.8438 34.5469 19.7812 34.5469 20.9375V29.3125C34.5469 30.4688 35.4843 31.4062 36.6406 31.4062C37.797 31.4062 38.7344 30.4688 38.7344 29.3125V20.9375Z" fill="#2C91FF"/>
<path d="M11.5156 20.9375C11.5156 19.7812 10.5782 18.8438 9.42188 18.8438C8.26553 18.8438 7.32812 19.7812 7.32812 20.9375V29.3125C7.32812 30.4688 8.26553 31.4062 9.42188 31.4062C10.5782 31.4062 11.5156 30.4688 11.5156 29.3125V20.9375Z" fill="#2C91FF"/>
<path d="M19.8906 13.6094H26.1719V18.8438H19.8906V13.6094Z" fill="#007AF6"/>
<path d="M15.7031 6.28125H30.3594V9.42188H15.7031V6.28125Z" fill="#FD7422"/>
<path d="M20.9375 9.42188H25.125V13.6094H20.9375V9.42188Z" fill="#DC651E"/>
<path d="M30.0602 23.9286C30.0602 19.9639 26.8463 16.75 22.8817 16.75C18.9171 16.75 15.7031 19.9639 15.7031 23.9286V26.3214C15.7031 30.2861 18.9171 33.5 22.8817 33.5C26.8463 33.5 30.0602 30.2861 30.0602 26.3214V23.9286Z" fill="#2C91FF"/>
<path d="M23.293 30.3594H23.0312C22.7536 30.3594 22.4873 30.2491 22.291 30.0528C22.0947 29.8564 21.9844 29.5901 21.9844 29.3125C21.9844 29.0349 22.0947 28.7686 22.291 28.5722C22.4873 28.3759 22.7536 28.2656 23.0312 28.2656H23.293C23.7787 28.2651 24.2444 28.0719 24.5878 27.7285C24.9313 27.385 25.1245 26.9193 25.125 26.4336V26.1719C25.125 25.8942 25.2353 25.6279 25.4316 25.4316C25.6279 25.2353 25.8942 25.125 26.1719 25.125C26.4495 25.125 26.7158 25.2353 26.9121 25.4316C27.1085 25.6279 27.2188 25.8942 27.2188 26.1719V26.4336C27.2176 27.4744 26.8036 28.4723 26.0676 29.2082C25.3316 29.9442 24.3338 30.3582 23.293 30.3594Z" fill="#007AF6"/>
<path d="M15.4414 9.68359C16.7423 9.68359 17.7969 8.62901 17.7969 7.32812C17.7969 6.02724 16.7423 4.97266 15.4414 4.97266C14.1405 4.97266 13.0859 6.02724 13.0859 7.32812C13.0859 8.62901 14.1405 9.68359 15.4414 9.68359Z" fill="#FD9226"/>
<path d="M31.1445 9.68359C32.4454 9.68359 33.5 8.62901 33.5 7.32812C33.5 6.02724 32.4454 4.97266 31.1445 4.97266C29.8436 4.97266 28.7891 6.02724 28.7891 7.32812C28.7891 8.62901 29.8436 9.68359 31.1445 9.68359Z" fill="#FD9226"/>
<path d="M23.293 9.42188C24.5939 9.42188 25.6484 8.3673 25.6484 7.06641C25.6484 5.76552 24.5939 4.71094 23.293 4.71094C21.9921 4.71094 20.9375 5.76552 20.9375 7.06641C20.9375 8.3673 21.9921 9.42188 23.293 9.42188Z" fill="#FD9226"/>
</svg>
