<svg width="67" height="67" viewBox="0 0 67 67" fill="none" xmlns="http://www.w3.org/2000/svg">
<path d="M57.5781 37.6875H55.4844V30.3594C55.4844 27.8605 54.4917 25.464 52.7248 23.6971C50.9578 21.9302 48.5613 20.9375 46.0625 20.9375C43.5637 20.9375 41.1672 21.9302 39.4002 23.6971C37.6333 25.464 36.6406 27.8605 36.6406 30.3594V36.6406H34.5469V30.3594C34.5469 27.3052 35.7601 24.3762 37.9197 22.2166C40.0793 20.057 43.0084 18.8437 46.0625 18.8438C49.1166 18.8437 52.0457 20.057 54.2053 22.2166C56.3649 24.3762 57.5781 27.3052 57.5781 30.3594V37.6875Z" fill="#428DC5"/>
<path d="M30.3594 35.5938H59.6719V39.7812H30.3594V35.5938Z" fill="#6CBAE5"/>
<path d="M56.5312 59.6719H33.5L31.4062 39.7812H58.625L56.5312 59.6719Z" fill="#4799CF"/>
<path d="M59.6719 35.332V42.863C59.6719 43.9897 58.8056 44.9607 57.6789 45.013C57.3958 45.0265 57.113 44.9823 56.8475 44.8833C56.582 44.7843 56.3393 44.6325 56.1342 44.437C55.929 44.2415 55.7657 44.0065 55.654 43.746C55.5423 43.4856 55.4846 43.2052 55.4844 42.9219C55.4844 43.4772 55.2638 44.0097 54.8711 44.4024C54.4785 44.795 53.9459 45.0156 53.3906 45.0156C52.8353 45.0156 52.3028 44.795 51.9101 44.4024C51.5175 44.0097 51.2969 43.4772 51.2969 42.9219C51.2969 43.4772 51.0763 44.0097 50.6836 44.4024C50.291 44.795 49.7584 45.0156 49.2031 45.0156C48.6478 45.0156 48.1153 44.795 47.7226 44.4024C47.33 44.0097 47.1094 43.4772 47.1094 42.9219C47.1099 43.2894 47.0133 43.6505 46.8293 43.9687C46.6448 44.2867 46.3805 44.5511 46.0625 44.7356C45.7543 44.9149 45.4049 45.0113 45.0483 45.0156C43.8785 45.0326 42.9219 44.0342 42.9219 42.8643V35.332C42.9219 34.5685 43.2252 33.8362 43.7651 33.2963C44.305 32.7564 45.0372 32.4531 45.8008 32.4531H56.793C57.5565 32.4531 58.2888 32.7564 58.8287 33.2963C59.3686 33.8362 59.6719 34.5685 59.6719 35.332Z" fill="#FD9226"/>
<path d="M33.5 59.6719H56.5312V63.8594H33.5V59.6719Z" fill="#6CBAE5"/>
<path d="M51.2969 51.2969H53.3906V56.5312H51.2969V51.2969Z" fill="#6CBAE5"/>
<path d="M51.2969 47.1094H53.3906V49.2031H51.2969V47.1094Z" fill="#6CBAE5"/>
<path d="M47.1094 42.9219C47.1099 43.2894 47.0133 43.6506 46.8293 43.9688C46.6448 44.2867 46.3805 44.5511 46.0625 44.7356V38.7344H47.1094V42.9219Z" fill="#E08122"/>
<path d="M51.2969 42.9219C51.297 43.2895 51.2004 43.6507 51.0166 43.9691C50.8328 44.2875 50.5684 44.5518 50.25 44.7356V38.7344H51.2969V42.9219Z" fill="#E08122"/>
<path d="M55.4844 42.9219C55.4845 43.2895 55.3879 43.6507 55.2041 43.9691C55.0203 44.2875 54.7559 44.5518 54.4375 44.7356V38.7344H55.4844V42.9219Z" fill="#E08122"/>
<path d="M40.8281 63.8594H7.32812L9.42188 55.4844H38.7344L40.8281 63.8594Z" fill="#FBB540"/>
<path d="M10.4688 51.2969H37.6875C37.9651 51.2969 38.2314 51.4072 38.4278 51.6035C38.6241 51.7998 38.7344 52.0661 38.7344 52.3438V55.4844H9.42188V52.3438C9.42188 52.0661 9.53217 51.7998 9.7285 51.6035C9.92482 51.4072 10.1911 51.2969 10.4688 51.2969Z" fill="#C17450"/>
<path d="M21.9844 55.4844H26.1719L27.2188 63.8594H20.9375L21.9844 55.4844Z" fill="#EA9D2D"/>
<path d="M11.5156 63.8594L13.6094 55.4844H17.7969L15.7031 63.8594H11.5156Z" fill="#EA9D2D"/>
<path d="M24.0781 3.14062C24.6334 3.14063 25.166 3.36122 25.5586 3.75387C25.9513 4.14652 26.1719 4.67908 26.1719 5.23438V51.2969H21.9844V5.23438C21.9844 4.67908 22.205 4.14652 22.5976 3.75387C22.9903 3.36122 23.5228 3.14063 24.0781 3.14062Z" fill="#8F563B"/>
<path d="M13.6094 27.2188C13.2843 28.1939 12.7367 29.0799 12.0099 29.8067C11.283 30.5335 10.397 31.0812 9.42188 31.4062C10.397 31.7313 11.283 32.279 12.0099 33.0058C12.7367 33.7326 13.2843 34.6186 13.6094 35.5938C13.9345 34.6186 14.4821 33.7326 15.2089 33.0058C15.9357 32.279 16.8218 31.7313 17.7969 31.4062C16.8218 31.0812 15.9357 30.5335 15.2089 29.8067C14.4821 29.0799 13.9345 28.1939 13.6094 27.2188Z" fill="#FBB540"/>
<path d="M59.6719 14.6562C59.3468 15.6314 58.7992 16.5174 58.0724 17.2442C57.3455 17.971 56.4595 18.5187 55.4844 18.8438C56.4595 19.1688 57.3455 19.7165 58.0724 20.4433C58.7992 21.1701 59.3468 22.0561 59.6719 23.0312C59.997 22.0561 60.5446 21.1701 61.2714 20.4433C61.9982 19.7165 62.8843 19.1688 63.8594 18.8438C62.8843 18.5187 61.9982 17.971 61.2714 17.2442C60.5446 16.5174 59.997 15.6314 59.6719 14.6562Z" fill="#FBB540"/>
<path d="M7.32812 39.7812C7.00305 40.7564 6.45542 41.6424 5.7286 42.3692C5.00179 43.096 4.11574 43.6437 3.14062 43.9688C4.11574 44.2938 5.00179 44.8415 5.7286 45.5683C6.45542 46.2951 7.00305 47.1811 7.32812 48.1562C7.6532 47.1811 8.20083 46.2951 8.92765 45.5683C9.65446 44.8415 10.5405 44.2938 11.5156 43.9688C10.5405 43.6437 9.65446 43.096 8.92765 42.3692C8.20083 41.6424 7.6532 40.7564 7.32812 39.7812Z" fill="#FBB540"/>
<path d="M30.3594 55.4844H34.5469L36.6406 63.8594H32.4531L30.3594 55.4844Z" fill="#EA9D2D"/>
</svg>
